PathFileType	4	(X/Y/Z)	C:/Users/opensim2020/Desktop/walking_exp_matlab/subject01_walking11_straight_03.trc	
DataRate	CameraRate	NumFrames	NumMarkers	Units	OrigDataRate	OrigDataStartFrame	OrigNumFrames	
100.00	100.00	5	44	mm	100.00	2912	338	
Frame#	Time	LFHD			RFHD			LBHD			RBHD			C7			T10			CLAV			STRN			RBAK			LSHO			LUPA			LELB			LFRM			LWRA			LWRB			LFIN			RSHO			RUPA			RELB			RFRM			RWRA			RWRB			RFIN			LASI			RASI			LPSI			RPSI			LTHI			LKNE			LTIB			LANK			LHEE			LTOE			RTHI			RKNE			RTIB			RANK			RHEE			RTOE			*39			*40			*41			*42			*43			
		X1	Y1	Z1	X2	Y2	Z2	X3	Y3	Z3	X4	Y4	Z4	X5	Y5	Z5	X6	Y6	Z6	X7	Y7	Z7	X8	Y8	Z8	X9	Y9	Z9	X10	Y10	Z10	X11	Y11	Z11	X12	Y12	Z12	X13	Y13	Z13	X14	Y14	Z14	X15	Y15	Z15	X16	Y16	Z16	X17	Y17	Z17	X18	Y18	Z18	X19	Y19	Z19	X20	Y20	Z20	X21	Y21	Z21	X22	Y22	Z22	X23	Y23	Z23	X24	Y24	Z24	X25	Y25	Z25	X26	Y26	Z26	X27	Y27	Z27	X28	Y28	Z28	X29	Y29	Z29	X30	Y30	Z30	X31	Y31	Z31	X32	Y32	Z32	X33	Y33	Z33	X34	Y34	Z34	X35	Y35	Z35	X36	Y36	Z36	X37	Y37	Z37	X38	Y38	Z38	X39	Y39	Z39	X40	Y40	Z40	X41	Y41	Z41	X42	Y42	Z42	X43	Y43	Z43	X44	Y44	Z44	

85	0.840	1444.35254	-388.48700	1669.01794	1553.34412	-357.89386	1681.18079	1471.49316	-483.94702	1593.23438	1587.47681	-453.88992	1604.16882	1499.49585	-474.48132	1423.62512	1505.59680	-514.10950	1133.14124	1496.39075	-329.75256	1357.13562	1489.65100	-290.92172	1198.10083	1576.63403	-530.94391	1231.58533	1337.52869	-389.74136	1393.03491	1253.64722	-432.26987	1211.28223	1255.94385	-459.21603	1062.87109	1225.26758	-436.40884	953.33142	1233.94360	-369.26352	829.65057	1214.02234	-426.11765	831.69336	1199.67932	-385.09314	757.48053	1648.02417	-392.60950	1382.91931	1750.03235	-432.42691	1178.75061	1750.78345	-415.32288	1053.30444	1772.70142	-353.66940	946.27319	1742.83081	-242.84097	861.10535	1783.48901	-282.48370	846.57129	1774.06409	-224.01181	783.27502	1398.53711	-347.81320	924.30023	1615.44202	-353.25769	916.27039	1444.11023	-534.95093	940.95477	1589.25488	-536.17981	942.11176	1321.22705	-312.21878	609.89569	1335.25928	-283.55460	481.73090	1313.33350	-275.50217	296.23816	1351.73450	-222.66678	78.54687	1405.89502	-251.59293	32.41578	1338.59436	-75.28860	91.50634	1659.62195	-443.62509	588.27203	1632.62109	-455.82800	428.75830	1639.55847	-545.40558	275.85391	1591.23584	-624.13489	85.17787	1545.01379	-683.68311	55.87078	1581.85767	-492.56879	32.27952	1534.38977	-382.74332	1709.27747	-3101.93481	1973.03796	1023.61493	-3140.75464	2012.50232	1021.96216						 
86	0.850	1441.57849	-382.98120	1668.41980	1550.62109	-352.60626	1680.64758	1468.56323	-478.48361	1592.59094	1584.60815	-448.62170	1603.60864	1496.74329	-468.93552	1422.91235	1503.30322	-508.04529	1132.36084	1493.97449	-324.14017	1356.62085	1487.61963	-285.05463	1197.64844	1574.11633	-525.36316	1231.00269	1334.97034	-383.84283	1392.21289	1251.18237	-425.85437	1210.20251	1253.71545	-452.67831	1061.83875	1223.20691	-429.76810	952.23602	1232.18726	-362.42361	828.71954	1212.20886	-419.19272	830.64343	1198.02881	-377.93326	756.54047	1645.44519	-387.28378	1382.61194	1747.66797	-426.97745	1178.53430	1748.64819	-409.55423	1053.10730	1770.77893	-347.92453	946.10858	1741.24744	-237.06270	860.92181	1781.88452	-276.72366	846.44720	1772.63904	-218.29512	783.13812	1397.19360	-340.96100	923.64929	1614.21118	-347.20810	916.06628	1442.05200	-528.33435	940.13257	1587.17749	-530.43597	941.84485	1320.99536	-304.76770	609.38184	1334.74744	-276.62030	481.11603	1312.38403	-270.65085	295.04990	1350.79150	-220.83925	76.92883	1404.64624	-250.78319	31.30832	1338.83521	-73.14955	88.01205	1658.56482	-438.30048	587.96515	1632.06299	-450.93875	428.33447	1639.04626	-542.24707	276.43912	1591.35522	-623.33240	86.42435	1545.12280	-683.48035	58.30835	1581.88806	-492.50748	32.24192	1531.62158	-377.44675	1708.71350	-3101.92676	1973.05237	1023.38727	-3140.74316	2012.52527	1021.94824						 
87	0.860	1438.67957	-377.42041	1667.82520	1547.83630	-347.31555	1680.12695	1465.47729	-473.09198	1592.07190	1581.66467	-443.37012	1603.09521	1493.85889	-463.43335	1422.15820	1500.92224	-501.91962	1131.58923	1491.49695	-318.52628	1356.12561	1485.48462	-279.04977	1197.22546	1571.49182	-519.62714	1230.34314	1332.29309	-377.97778	1391.40710	1248.75549	-419.72421	1209.21143	1251.38489	-446.27924	1060.73267	1221.10742	-422.92953	951.15521	1230.63684	-355.43744	827.78040	1210.34143	-412.06873	829.54346	1196.40271	-370.48557	755.62207	1642.78943	-381.94046	1382.27173	1745.22009	-421.53949	1178.35168	1746.42932	-403.85117	1052.90857	1768.89270	-342.28394	945.99615	1739.72253	-231.38950	860.72699	1780.31628	-271.14655	846.31281	1771.26758	-212.72070	782.95258	1395.74048	-333.92545	923.07788	1612.90442	-340.95068	915.83710	1439.87390	-521.53363	939.22015	1585.03223	-524.18262	941.51453	1320.72546	-297.41937	608.72308	1334.49036	-269.78345	480.43784	1311.53052	-266.03818	293.78888	1350.10193	-219.86049	74.51165	1404.15857	-250.47037	30.00902	1339.32373	-71.69885	83.81808	1657.61267	-432.69949	587.77863	1631.43359	-445.85596	427.91113	1639.02649	-539.07410	277.25818	1591.59058	-622.41498	88.08588	1545.47827	-682.53857	60.07373	1581.98059	-492.33298	32.24071	1528.81519	-372.00293	1708.19006	-3102.08154	1973.06104	1023.93658	-3140.65283	2012.48352	1022.02429						 
88	0.870	1435.81726	-371.78201	1667.26807	1544.91028	-342.01166	1679.58118	1462.40588	-467.64636	1591.49072	1578.59314	-438.14374	1602.57715	1490.88403	-457.94885	1421.37939	1498.46985	-495.72440	1130.73877	1488.88062	-312.93555	1355.65588	1483.21729	-272.99402	1196.87720	1568.82703	-513.84863	1229.64001	1329.54333	-372.12912	1390.63293	1246.05994	-413.20892	1208.18933	1248.92126	-439.64685	1059.59656	1219.00867	-416.00806	950.07104	1228.71265	-348.08124	826.86615	1208.45728	-404.80420	828.43127	1194.49951	-363.07071	754.75482	1640.04529	-376.59256	1381.94751	1742.69812	-416.12305	1178.16577	1744.19409	-398.28677	1052.78162	1766.93335	-336.81915	945.85028	1738.17676	-225.85258	860.46069	1778.66296	-265.76700	846.12018	1769.82764	-207.25211	782.70642	1394.16089	-326.68359	922.53735	1611.46838	-334.51526	915.61676	1437.62683	-514.57031	938.31177	1582.58826	-517.34540	940.62061	1320.56934	-290.16357	607.94849	1334.14856	-263.14825	479.60043	1310.92810	-261.79544	292.31415	1350.39038	-218.98090	72.34531	1404.33154	-250.20688	29.24606	1339.56653	-70.32901	79.24767	1656.64148	-426.84442	587.49756	1630.69043	-440.55499	427.51395	1638.36292	-535.46960	277.84869	1591.76892	-621.33478	89.71070	1545.72339	-681.96649	62.40603	1582.04443	-492.16360	32.29268	1525.77600	-366.74289	1707.60718	-3101.80322	1973.15466	1023.45654	-3140.69873	2012.46472	1021.99701						 
89	0.880	1432.71191	-366.18994	1666.79712	1541.97437	-336.70804	1679.18665	1459.21277	-461.97049	1590.91895	1575.44739	-432.84650	1602.14502	1487.78076	-452.51340	1420.63989	1495.90784	-489.34882	1129.84094	1486.17297	-307.27518	1355.30225	1480.91956	-265.87250	1196.72119	1565.96155	-508.04138	1228.93689	1326.56665	-366.28180	1389.83765	1243.33435	-406.66925	1207.05774	1246.45374	-432.59839	1058.30579	1216.63696	-408.79883	948.93372	1227.10657	-340.76303	825.98590	1206.52515	-397.33270	827.34210	1192.90735	-355.48718	753.64111	1637.19775	-371.28531	1381.67334	1740.14758	-410.69193	1178.11963	1741.86670	-392.76981	1052.63916	1764.96851	-331.39282	945.65576	1736.60107	-220.41785	860.13470	1776.93640	-260.45398	845.84174	1768.48499	-201.96053	782.46588	1392.60767	-319.40829	921.96521	1609.97046	-327.80923	915.37976	1435.29028	-507.62625	937.47162	1580.30249	-510.74377	939.99915	1320.61658	-283.01282	607.09949	1333.38721	-256.96030	478.42920	1310.78516	-257.76077	290.70410	1351.40393	-216.98682	71.73447	1405.06799	-248.72081	29.83841	1339.17505	-67.97158	74.59060	1655.65442	-420.79413	587.28595	1629.87378	-434.95926	427.16544	1637.70898	-531.79291	278.58801	1592.10681	-620.32007	91.57882	1546.09827	-681.33319	64.93148	1582.06128	-491.96198	32.30688	1522.73450	-361.40552	1707.14819	-3101.82520	1973.07080	1023.61023	-3140.67065	2012.51099	1021.95813						 
